HIERARCHY
ROOT Hips
{
	OFFSET 0.00000 0.00000 0.00000
	CHANNELS 6 Xposition Yposition Zposition Zrotation Yrotation Xrotation 
	JOINT LHipJoint
	{
		OFFSET 0 0 0
		CHANNELS 3 Zrotation Yrotation Xrotation
		JOINT LeftUpLeg
		{
			OFFSET 1.42489 -1.84941 0.69647
			CHANNELS 3 Zrotation Yrotation Xrotation
			JOINT LeftLeg
			{
				OFFSET 2.44443 -6.71602 0.00000
				CHANNELS 3 Zrotation Yrotation Xrotation
				JOINT LeftFoot
				{
					OFFSET 2.62838 -7.22137 0.00000
					CHANNELS 3 Zrotation Yrotation Xrotation
					JOINT LeftToeBase
					{
						OFFSET 0.24036 -0.66037 2.29953
						CHANNELS 3 Zrotation Yrotation Xrotation
						End Site
						{
							OFFSET 0.00000 -0.00000 1.19837
						}
					}
				}
			}
		}
	}
	JOINT RHipJoint
	{
		OFFSET 0 0 0
		CHANNELS 3 Zrotation Yrotation Xrotation
		JOINT RightUpLeg
		{
			OFFSET -1.37055 -1.84941 0.69647
			CHANNELS 3 Zrotation Yrotation Xrotation
			JOINT RightLeg
			{
				OFFSET -2.54834 -7.00152 0.00000
				CHANNELS 3 Zrotation Yrotation Xrotation
				JOINT RightFoot
				{
					OFFSET -2.65692 -7.29983 0.00000
					CHANNELS 3 Zrotation Yrotation Xrotation
					JOINT RightToeBase
					{
						OFFSET -0.18839 -0.51760 2.29390
						CHANNELS 3 Zrotation Yrotation Xrotation
						End Site
						{
							OFFSET -0.00000 -0.00000 1.18261
						}
					}
				}
			}
		}
	}
	JOINT LowerBack
	{
		OFFSET 0 0 0
		CHANNELS 3 Zrotation Yrotation Xrotation
		JOINT Spine
		{
			OFFSET 0.05220 2.15489 0.05011
			CHANNELS 3 Zrotation Yrotation Xrotation
			JOINT Spine1
			{
				OFFSET -0.07653 2.14219 -0.05668
				CHANNELS 3 Zrotation Yrotation Xrotation
				JOINT Neck
				{
					OFFSET 0 0 0
					CHANNELS 3 Zrotation Yrotation Xrotation
					JOINT Neck1
					{
						OFFSET 0.01370 1.58638 0.01447
						CHANNELS 3 Zrotation Yrotation Xrotation
						JOINT Head
						{
							OFFSET 0.23548 1.54190 -0.21747
							CHANNELS 3 Zrotation Yrotation Xrotation
							End Site
							{
								OFFSET 0.07132 1.59823 -0.08163
							}
						}
					}
				}
				JOINT LeftShoulder
				{
					OFFSET 0 0 0
					CHANNELS 3 Zrotation Yrotation Xrotation
					JOINT LeftArm
					{
						OFFSET 3.47056 1.45357 -0.58896
						CHANNELS 3 Zrotation Yrotation Xrotation
						JOINT LeftForeArm
						{
							OFFSET 5.19069 -0.00000 0.00000
							CHANNELS 3 Zrotation Yrotation Xrotation
							JOINT LeftHand
							{
								OFFSET 3.30016 -0.00000 0.00000
								CHANNELS 3 Zrotation Yrotation Xrotation
								JOINT LeftFingerBase
								{
									OFFSET 0 0 0
									CHANNELS 3 Zrotation Yrotation Xrotation
									JOINT LeftHandIndex1
									{
										OFFSET 0.70770 -0.00000 0.00000
										CHANNELS 3 Zrotation Yrotation Xrotation
										End Site
										{
											OFFSET 0.57056 -0.00000 0.00000
										}
									}
								}
								JOINT LThumb
								{
									OFFSET 0 0 0
									CHANNELS 3 Zrotation Yrotation Xrotation
									End Site
									{
										OFFSET 0.57928 -0.00000 0.57928
									}
								}
							}
						}
					}
				}
				JOINT RightShoulder
				{
					OFFSET 0 0 0
					CHANNELS 3 Zrotation Yrotation Xrotation
					JOINT RightArm
					{
						OFFSET -2.89018 2.03305 -0.26731
						CHANNELS 3 Zrotation Yrotation Xrotation
						JOINT RightForeArm
						{
							OFFSET -5.23924 -0.00000 0.00000
							CHANNELS 3 Zrotation Yrotation Xrotation
							JOINT RightHand
							{
								OFFSET -3.32953 -0.00000 0.00000
								CHANNELS 3 Zrotation Yrotation Xrotation
								JOINT RightFingerBase
								{
									OFFSET 0 0 0
									CHANNELS 3 Zrotation Yrotation Xrotation
									JOINT RightHandIndex1
									{
										OFFSET -0.60741 -0.00000 0.00000
										CHANNELS 3 Zrotation Yrotation Xrotation
										End Site
										{
											OFFSET -0.48971 -0.00000 0.00000
										}
									}
								}
								JOINT RThumb
								{
									OFFSET 0 0 0
									CHANNELS 3 Zrotation Yrotation Xrotation
									End Site
									{
										OFFSET -0.49719 -0.00000 0.49719
									}
								}
							}
						}
					}
				}
			}
		}
	}
}
MOTION
Frames: 14
Frame Time: 0.0454545
0.00 0.00 0.00 -178.7310 -12.4394 184.8610 0.0000 0.0000 0.0000 -2.3865 12.6735 13.2963 2.1680 9.2077 26.4471 -0.0065 -1.4324 0.4775 0.4805 -4.4453 -12.3329 0.0000 0.0000 0.0000 29.6143 8.1302 -3.5181 -3.6562 -11.6883 34.6381 -3.0046 -0.8952 -33.1719 -0.0000 0.0009 -0.0025 -0.5108 -2.3636 -13.7969 -2.7339 -3.7838 -5.7677 -3.1291 -2.2452 1.4877 -6.7988 -6.2875 -1.6508 24.5172 -14.2417 10.6319 7.9675 -7.3527 5.7465 -0.0000 -0.0000 0.0000 -77.6899 -8.3526 45.2967 21.1127 -31.9596 -6.1095 -0.0000 0.0000 -10.6825 14.5651 -7.8202 -2.0248 -7.1250 0.0000 -0.0000 -8.9060 21.9372 4.9932 -0.0000 -0.0000 0.0000 76.4556 -1.4791 69.9961 -32.1173 42.6405 -12.8202 0.0000 -0.0000 -2.4447 -4.1342 -8.8185 0.6349 7.1250 -0.0000 -0.0000 19.3834 -38.1124 3.4433
0.00 0.00 0.00 -171.2090 -23.6878 183.5430 0.0000 0.0000 0.0000 -0.1582 -11.8949 -32.0353 16.0739 19.6263 78.4518 0.6778 -2.5854 -14.8875 0.5527 -4.7625 -13.2324 0.0000 0.0000 0.0000 37.0126 -4.1452 -1.4930 -1.3925 -7.4657 21.1025 -2.1197 1.0369 -27.2648 -0.0010 0.2036 -0.5595 8.5563 0.5239 -6.6247 -0.2961 0.0285 -2.4531 -5.1188 -0.0734 1.1730 -6.0831 -6.1958 -2.3701 23.2665 -13.1360 11.3154 7.5263 -6.3904 5.7622 0.0000 0.0000 0.0000 -75.9295 -11.0368 45.7506 23.6241 -34.7642 -7.4911 -0.0000 0.0000 -13.7043 14.5418 -7.1020 -1.8369 -7.1250 0.0000 -0.0000 -8.9525 22.6701 4.8683 0.0000 0.0000 0.0000 70.5773 5.1938 60.8135 -36.3306 45.7392 -15.7588 0.0000 -0.0000 -3.0956 -4.9258 -9.3638 0.8034 7.1250 -0.0000 -0.0000 18.8795 -38.6880 3.0655
0.00 0.00 0.00 -170.2780 -24.4788 183.3040 0.0000 0.0000 0.0000 -2.0364 -20.8776 -41.1825 11.9302 18.3610 65.7675 1.0147 -2.2169 -18.4244 0.7982 -5.7023 -15.9232 0.0000 0.0000 0.0000 38.0473 -5.1288 -0.4027 -1.0951 -6.6499 18.6822 -1.8386 -0.1381 -25.7197 -0.0058 0.4923 -1.3526 9.6891 1.2753 -2.1869 1.5194 1.3207 0.1062 -3.8024 0.6839 1.5323 -6.0688 -6.0210 -2.2287 23.5568 -14.2060 15.0572 7.5943 -6.7444 7.1066 0.0000 -0.0000 0.0000 -75.2337 -9.9987 44.4464 23.4980 -34.6289 -7.4193 -0.0000 0.0000 -14.0681 14.8129 -6.5993 -1.7408 -7.1250 0.0000 -0.0000 -8.7768 23.1736 4.6680 0.0000 -0.0000 0.0000 71.2780 8.4472 56.0563 -37.7634 46.6875 -16.7932 0.0000 -0.0000 -3.2203 -7.3962 -9.6689 1.2490 7.1250 -0.0000 -0.0000 16.9049 -39.1702 2.5127
0.00 0.00 0.00 -170.5970 -13.1932 191.5190 0.0000 0.0000 0.0000 -0.1738 -16.1395 -32.5521 4.9815 13.3629 40.7428 1.4358 1.7740 -23.3417 0.0634 -1.6240 -4.4677 0.0000 0.0000 0.0000 35.7747 4.1122 -12.1391 -7.4956 -15.7354 50.7247 0.0016 2.6314 3.6521 -0.7921 5.6811 -15.8618 1.2156 1.5627 2.6263 -9.1155 1.4185 4.7419 -10.4191 0.5875 3.7690 -7.2938 -7.7477 0.0504 12.4610 -13.5944 18.0285 4.2699 -6.6816 6.8015 0.0000 -0.0000 0.0000 -63.8365 -20.9017 36.0360 21.2201 -32.0844 -6.1665 -0.0000 0.0000 -12.8584 18.3706 -6.7491 -2.2350 -7.1250 0.0000 -0.0000 -6.1623 22.8829 3.2997 0.0000 -0.0000 0.0000 77.0151 6.7304 59.8338 -50.0603 53.0198 -26.2223 0.0000 -0.0000 -4.8182 -8.1644 -8.2970 1.1860 7.1250 -0.0000 -0.0000 15.9285 -37.9008 2.8718
0.00 0.00 0.00 -172.8600 -14.2618 191.5850 0.0000 0.0000 0.0000 -3.0475 -15.2795 -30.5554 4.2574 12.4952 37.5072 1.3265 0.6674 -22.0259 0.0415 -1.3151 -3.6164 0.0000 0.0000 0.0000 30.1954 8.4522 -26.4984 -13.0054 -18.7841 69.1421 -0.0004 0.7396 -0.6049 -1.3305 7.3044 -20.6204 -0.7275 0.9754 7.6781 -7.2887 0.1610 8.3096 -7.3311 -0.2500 4.4135 -8.7440 -7.2778 -1.3251 12.9769 -12.8506 18.2864 4.6849 -6.2653 7.1685 0.0000 0.0000 0.0000 -65.8586 -21.4982 34.2098 21.3622 -32.2487 -6.2421 -0.0000 0.0000 -13.6664 17.9659 -6.4187 -2.0761 -7.1250 0.0000 -0.0000 -6.4669 23.2448 3.4108 0.0000 0.0000 0.0000 74.9197 10.8442 56.7014 -55.1977 54.8882 -30.3777 0.0000 -0.0000 -4.6108 -12.8352 -7.5818 1.7219 7.1250 -0.0000 -0.0000 11.8884 -37.5097 2.2298
0.00 0.00 0.00 -182.2510 -18.6894 198.7070 0.0000 0.0000 0.0000 -12.2909 -14.7351 -29.4354 2.9477 10.6099 30.9753 1.3079 -3.7290 -20.7133 0.1359 -2.3759 -6.5458 0.0000 0.0000 0.0000 -3.3620 19.1097 -54.1561 -4.8743 -13.2408 40.2766 0.0717 -13.4617 -18.2558 -0.5454 4.7312 -13.1434 2.9065 1.9913 15.3945 -3.1877 0.6117 14.0457 -5.2112 -0.2039 6.6229 -7.6890 -7.5739 1.8722 15.3225 -13.6163 16.0063 5.3755 -6.5509 6.0592 0.0000 -0.0000 0.0000 -70.6976 -21.7468 37.7611 20.7933 -31.5862 -5.9413 -0.0000 0.0000 -15.3780 20.8512 -7.0831 -2.6890 -7.1250 0.0000 -0.0000 -4.3407 22.4129 2.3644 0.0000 -0.0000 0.0000 76.0741 13.6066 50.0229 -53.2654 54.2305 -28.8033 0.0000 -0.0000 -0.3349 -22.0368 -7.0251 2.8342 7.1250 -0.0000 -0.0000 4.0480 -37.5248 0.7462
0.00 0.00 0.00 -176.0600 -2.0778 186.4810 0.0000 0.0000 0.0000 -3.9033 9.0915 2.0737 5.7397 14.1713 43.9280 -0.3829 -11.0035 2.3678 0.5813 -4.8819 -13.5721 0.0000 0.0000 0.0000 27.8597 12.0731 -7.8671 -3.7918 -11.8780 35.3018 -2.4961 2.5245 -29.2578 -0.0003 0.1183 -0.3251 4.2950 -2.3913 -8.9821 -0.2679 -3.7477 -2.2765 -3.0889 -1.9303 2.3741 -5.3448 -7.9638 -1.2366 22.3012 -11.1665 9.6631 7.3830 -4.0817 4.6708 -0.0000 -0.0000 0.0000 -77.9588 -15.9819 50.9069 20.3570 -31.0701 -5.7145 -0.0000 0.0000 -12.8964 10.4590 -8.6225 -1.5853 -7.1250 0.0000 -0.0000 -11.8177 21.2850 6.8663 -0.0000 -0.0000 0.0000 76.0876 -1.3781 60.3083 -23.5944 34.7324 -7.4742 0.0000 0.0000 1.3686 6.1361 -8.5958 -0.9206 7.1250 -0.0000 -0.0000 27.5109 -37.1296 5.8838
0.00 0.00 0.00 -171.3320 -20.0015 182.9520 0.0000 0.0000 0.0000 -5.4240 -19.1957 -37.5348 4.3307 12.5879 37.8448 0.6686 -8.3476 -14.8338 0.8601 -5.9141 -16.5353 0.0000 0.0000 0.0000 34.8143 -10.2740 11.6954 -0.1462 -2.4643 6.7908 -1.7039 -0.8818 -25.0184 -0.0332 1.1765 -3.2347 9.6996 0.0435 -5.9694 1.0939 -0.6868 -2.3248 -4.3498 -0.4613 0.8374 -7.0769 -6.6228 -1.1132 26.0844 -12.7099 4.8703 8.7168 -6.6477 3.8192 -0.0000 0.0000 0.0000 -75.0184 -6.5485 46.9109 18.9468 -29.3525 -5.0048 -0.0000 0.0000 -14.0876 9.4140 -5.5678 -0.9216 -7.1250 0.0000 -0.0000 -12.8031 24.3392 6.5463 -0.0000 0.0000 0.0000 75.4424 2.2676 61.7634 -27.7777 38.9108 -9.9837 0.0000 -0.0000 -3.1749 7.0161 -7.9851 -0.9794 7.1250 -0.0000 -0.0000 27.9803 -36.5150 6.4813
0.00 0.00 0.00 -173.7050 -17.7153 193.4810 0.0000 0.0000 0.0000 -1.3647 -25.8822 -42.4760 7.2660 15.5518 49.8731 1.2641 -0.7773 -21.0201 0.0981 -2.0194 -5.5592 0.0000 0.0000 0.0000 32.3078 -10.1618 15.4560 0.0000 0.0000 -0.0000 -0.3736 3.8180 -10.8684 -0.7063 5.3714 -14.9710 6.6737 2.6982 -2.1267 -2.2325 3.4700 -0.6729 -5.9455 1.7547 1.0327 -7.6538 -7.8879 1.5429 26.4329 -14.3720 5.2123 8.9377 -7.5248 3.8073 0.0000 0.0000 0.0000 -64.5564 -11.4005 35.1128 19.0077 -29.4283 -5.0347 -0.0000 0.0000 -12.4537 12.1965 -4.7893 -1.0339 -7.1250 0.0000 -0.0000 -10.8162 25.0714 5.3040 0.0000 0.0000 0.0000 76.0245 5.9536 65.0652 -30.8752 41.6319 -11.9868 0.0000 -0.0000 -1.9180 0.1216 -7.0681 -0.0150 7.1250 -0.0000 -0.0000 22.3327 -36.1804 5.1671
0.00 0.00 0.00 -175.2920 -1.8806 189.2110 0.0000 0.0000 0.0000 -9.6716 -3.0465 -4.1109 0.6703 5.2354 14.5812 0.9831 1.9385 -19.5239 0.1172 -2.2074 -6.0793 0.0000 0.0000 0.0000 21.5264 24.4312 -30.3074 -11.7276 -18.2731 65.1228 -0.6725 -1.1289 -15.9402 -1.1314 6.7557 -18.9937 -0.4134 -1.3881 -0.5419 -6.4533 -2.3269 -0.5913 -6.4587 -1.3765 -0.5620 -7.7096 -9.4939 0.5904 26.0167 -12.3033 1.5404 8.9771 -5.3115 2.5720 -0.0000 -0.0000 0.0000 -67.8518 -17.1843 37.2298 19.8289 -30.4357 -5.4444 -0.0000 0.0000 -12.3165 12.3308 -7.4776 -1.6295 -7.1250 0.0000 -0.0000 -10.5398 22.3662 5.8329 -0.0000 -0.0000 0.0000 73.6745 11.6284 71.2630 -43.3610 49.9398 -20.9766 0.0000 -0.0000 -5.1526 3.9439 -6.7263 -0.4626 7.1250 -0.0000 -0.0000 25.2213 -35.6095 6.3362
0.00 0.00 0.00 -176.6380 0.6269 184.1960 0.0000 0.0000 0.0000 -11.0293 5.8721 13.4985 0.1005 2.0439 5.6269 0.5453 5.1787 -16.8012 0.5181 -4.6134 -12.8092 0.0000 0.0000 0.0000 17.2180 20.9336 -25.5247 -3.0941 -10.8459 31.7618 -0.1449 -7.2232 -13.1006 -0.2162 2.9933 -8.2601 0.2171 -2.7317 -4.8337 -5.4495 -3.2206 -1.8734 -5.9295 -1.4767 0.4462 -7.2799 -9.6048 -0.0418 24.9304 -12.5868 2.5350 8.4781 -5.3675 2.9073 0.0000 0.0000 0.0000 -71.5030 -15.7019 41.6016 19.4833 -30.0148 -5.2704 -0.0000 0.0000 -12.0944 11.9088 -7.9609 -1.6730 -7.1250 0.0000 -0.0000 -10.8174 21.8952 6.1103 0.0000 0.0000 0.0000 71.9688 10.0708 69.2980 -38.5309 47.1750 -17.3539 0.0000 -0.0000 -3.1425 7.2413 -7.7205 -0.9779 7.1250 -0.0000 -0.0000 28.0631 -36.2617 6.7015
0.00 0.00 0.00 -178.7590 -6.5366 180.9650 0.0000 0.0000 0.0000 -3.2827 12.3292 18.0017 1.3409 7.3318 20.7022 0.2783 13.1850 12.4322 0.1042 -2.0818 -5.7318 0.0000 0.0000 0.0000 23.1093 8.5489 -4.6986 -3.1912 -10.9983 32.2742 -1.5069 -5.6031 -25.7996 -0.0728 1.7402 -4.7882 0.3212 -3.1860 -11.2750 -2.6318 -4.8009 -4.7440 -3.4830 -2.6758 1.0952 -7.3979 -10.3225 -1.7212 27.6692 -13.8460 6.7686 9.3332 -5.0942 4.9125 -0.0000 0.0000 0.0000 -72.8113 -13.2501 45.5108 19.3418 -29.8412 -5.1999 -0.0000 0.0000 -12.8480 10.9201 -7.2936 -1.4031 -7.1250 0.0000 -0.0000 -11.5718 22.5937 6.3650 -0.0000 0.0000 0.0000 73.3453 5.1557 69.9030 -33.9724 44.0643 -14.0939 0.0000 -0.0000 -2.4673 4.0176 -7.1794 -0.5029 7.1250 -0.0000 -0.0000 25.4155 -36.0152 6.1157
0.00 0.00 0.00 -176.9890 -10.4234 179.7090 0.0000 0.0000 0.0000 0.7189 9.2148 7.9244 3.9975 12.1571 36.2900 1.2294 5.5966 19.8555 0.0052 0.4667 1.2825 0.0000 0.0000 0.0000 25.0184 1.9233 -0.2307 -1.9675 -8.7981 25.1659 -1.1749 -5.2362 -22.9856 -0.0769 1.7886 -4.9218 2.5703 -2.7380 -9.6393 -3.1577 -4.2683 -4.1694 -5.1426 -2.3886 0.6279 -7.3385 -6.6530 -2.0520 28.2805 -14.2870 4.9144 9.2982 -7.7751 4.4929 -0.0000 0.0000 0.0000 -73.2707 -10.4948 47.0693 18.4780 -28.7648 -4.7770 -0.0000 0.0000 -13.3082 9.1898 -7.3155 -1.1801 -7.1250 0.0000 -0.0000 -12.8189 22.6173 7.0769 -0.0000 0.0000 0.0000 72.5884 3.0761 72.8614 -33.0394 43.3603 -13.4491 0.0000 -0.0000 -2.5458 6.6297 -7.4346 -0.8616 7.1250 -0.0000 -0.0000 27.5029 -36.0534 6.6955
0.00 0.00 0.00 -173.0160 -15.5080 179.4000 0.0000 0.0000 0.0000 4.6606 0.9985 -7.9896 8.5992 16.5428 54.6935 0.1618 -10.2615 16.9316 0.0001 0.0517 0.1419 0.0000 0.0000 0.0000 29.1156 -3.0186 2.7945 -1.0783 -6.6003 18.5365 -0.6969 -6.2399 -19.2546 -0.1314 2.3366 -6.4368 7.0788 -0.7176 -9.9929 -3.2615 -1.9324 -4.2118 -7.6433 -1.2451 0.8478 -7.6154 -7.1057 -2.3357 28.1456 -14.1957 4.3297 9.2986 -7.5795 4.3719 0.0000 0.0000 0.0000 -72.2304 -9.5831 45.5646 18.2310 -28.4520 -4.6588 -0.0000 0.0000 -12.7120 9.9659 -7.4644 -1.3077 -7.1250 0.0000 -0.0000 -12.2486 22.4502 6.7952 0.0000 0.0000 0.0000 71.3722 1.2255 76.1042 -31.8522 42.4290 -12.6410 0.0000 -0.0000 -3.1480 17.7703 -7.7997 -2.4905 7.1250 -0.0000 -0.0000 35.7111 -35.3925 10.1477
